<svg xmlns="http://www.w3.org/2000/svg" xmlns:xlink="http://www.w3.org/1999/xlink" width="989.9332275390625" height="518.0599975585938" viewBox="0 0 989.9332275390625 518.0599975585938" fill="none">
<rect x="0" y="0" width="0" height="0" fill="rgba(249, 249, 249, 1)" />
<path d="M146.809 91.21L5.62902 423.63C-8.43098 456.75 4.76902 496.46 34.969 511.88C65.169 527.3 101.389 512.82 115.449 479.71L252.569 156.84L258.599 141.08C266.589 119.81 276.669 95.49 293.949 77.54C323.139 47.21 348.129 78.34 352.309 84.06C352.309 84.05 352.289 84.03 352.279 84.02C346.319 70.37 313.229 1.61 251.159 0C181.899 1.79 149.049 86.36 149.049 86.36L146.809 91.2L146.809 91.21Z"   fill="url(#linear_fill_TfNiXO62V4SU7l1bFeDzN)" >
</path>
<path d="M366.399 431.35C366.399 431.35 399.259 515.92 468.509 517.71C530.579 516.1 563.669 447.34 569.629 433.7C569.629 433.69 569.649 433.67 569.659 433.66C565.479 439.38 540.499 470.5 511.299 440.18C494.019 422.23 483.939 397.91 475.949 376.64L469.919 360.88L352.299 84.06C349.549 77.54 323.139 47.22 293.939 77.54C276.659 95.49 266.579 119.81 258.589 141.08L252.559 156.84L251.099 160.29L364.159 426.51L366.399 431.35Z"   fill="url(#linear_fill_8AT3gDOpNBjpydamyzNDQ)" >
</path>
<path d="M872.729 270.416L787.019 82.8263C784.269 76.7563 757.859 48.4963 728.659 76.7563C711.379 93.4863 701.299 116.136 693.309 135.956L687.279 150.636L685.819 153.846L763.209 323.766L872.729 270.406L872.729 270.416Z"   fill="url(#linear_fill_X2Rev_Wi_yuKAyaZ_eo4_)" >
</path>
<path d="M572.819 426.85L610.719 337.13L610.899 336.72L687.289 156.85L693.349 141.02C701.329 119.77 711.409 95.48 728.669 77.55C757.859 47.22 782.849 78.35 787.029 84.07C787.029 84.06 787.009 84.04 786.999 84.03C781.039 70.39 747.949 1.63002 685.879 0.0200195C616.619 1.81002 583.769 86.38 583.769 86.38L581.529 91.22L477.469 336.72L467.059 361.23L461.029 376.99C453.039 398.26 442.959 422.58 425.679 440.53C396.489 470.86 371.499 439.73 367.319 434.01C367.319 434.02 367.339 434.04 367.349 434.05C373.309 447.69 406.399 516.45 468.469 518.06C537.729 516.27 570.579 431.7 570.579 431.7L572.819 426.86L572.819 426.85Z"   fill="url(#linear_fill_FezwFMM1GOAFWOdxzXHKo)" >
</path>
<path d="M979.909 408.982L967.681 403.28C962.069 400.663 958.2 393.538 959.009 387.407L959.925 367.089C959.597 360.931 964.048 354.162 969.851 352.05L982.54 347.433C988.343 345.321 991.373 338.824 989.26 333.021L981.553 311.917C979.441 306.114 972.972 303.098 967.169 305.21L954.48 309.828C948.677 311.939 940.872 309.63 937.179 304.672L923.43 289.74C918.855 285.593 917.223 277.605 919.839 271.994L925.54 259.767C928.143 254.186 925.714 247.444 920.102 244.827L899.751 235.337C894.14 232.721 887.427 235.163 884.81 240.774L879.109 253.001C876.506 258.583 869.353 262.51 863.236 261.671L842.93 260.723C836.758 261.081 829.988 256.63 827.889 250.797L823.241 238.095C821.128 232.292 814.66 229.276 808.857 231.388L787.766 239.063C781.933 241.161 778.918 247.628 781.06 253.445L785.679 266.134C787.791 271.936 785.482 279.741 780.538 283.403L765.578 297.209C761.402 301.77 753.457 303.386 747.845 300.769L735.617 295.067C730.005 292.45 723.293 294.893 720.676 300.504L711.188 320.852C708.571 326.463 711.015 333.176 716.626 335.793L728.854 341.494C734.452 344.141 738.321 351.266 737.483 357.383L736.566 377.701C736.895 383.859 732.43 390.658 726.627 392.769L713.909 397.373C708.106 399.485 705.09 405.953 707.188 411.785L714.895 432.889C717.008 438.692 723.476 441.708 729.279 439.596L741.968 434.978C747.742 432.853 755.533 435.192 759.226 440.15L773.02 455.139C777.595 459.286 779.198 467.26 776.596 472.842L770.908 485.039C768.305 490.62 770.735 497.362 776.347 499.979L796.697 509.469C802.279 512.072 809.022 509.643 811.638 504.032L817.326 491.835C819.942 486.223 827.097 482.369 833.214 483.208L853.534 484.126C859.706 483.768 866.476 488.22 868.618 494.036L873.208 506.711C875.32 512.514 881.818 515.544 887.592 513.418L908.712 505.757C914.529 503.616 917.545 497.148 915.432 491.345L910.813 478.657C908.701 472.854 911.039 465.063 915.968 461.357L930.943 447.595C935.09 443.021 943.094 441.432 948.676 444.035L960.904 449.737C966.487 452.34 973.199 449.897 975.816 444.286L985.318 423.909C987.921 418.327 985.491 411.585 979.909 408.982ZM899.18 396.11C886.069 424.225 852.68 436.376 824.561 423.264C796.443 410.152 784.289 376.764 797.399 348.649C810.509 320.534 843.899 308.383 872.017 321.495C900.135 334.606 912.276 368.024 899.18 396.11Z"   fill="url(#linear_fill_89K02A7GSH58Tx1X5ZeFM)" >
</path>
<defs>
<linearGradient id="linear_fill_TfNiXO62V4SU7l1bFeDzN" x1="278.1090087890625" y1="25.27001953125" x2="56.948974609375" y2="507.4599914550781" gradientUnits="userSpaceOnUse">
<stop offset="0" stop-color="#7EC2EB"  />
<stop offset="0.5" stop-color="#60B2E4"  />
<stop offset="1" stop-color="#4171B5"  />
</linearGradient>
<linearGradient id="linear_fill_8AT3gDOpNBjpydamyzNDQ" x1="495.46905517578125" y1="108.75" x2="336.9190673828125" y2="454.41998291015625" gradientUnits="userSpaceOnUse">
<stop offset="0" stop-color="#3F6EB5"  />
<stop offset="0.5" stop-color="#60B2E4"  />
<stop offset="0.89" stop-color="#74BDE9"  />
</linearGradient>
<linearGradient id="linear_fill_X2Rev_Wi_yuKAyaZ_eo4_" x1="722.1589965820312" y1="91.42633056640625" x2="810.1890258789062" y2="277.39630126953125" gradientUnits="userSpaceOnUse">
<stop offset="0" stop-color="#4171B5"  />
<stop offset="0.5" stop-color="#60B2E4"  />
<stop offset="1" stop-color="#7EC2EB"  />
</linearGradient>
<linearGradient id="linear_fill_FezwFMM1GOAFWOdxzXHKo" x1="477.76904296875" y1="457.1700134277344" x2="683.6390380859375" y2="46.780029296875" gradientUnits="userSpaceOnUse">
<stop offset="0" stop-color="#4171B5"  />
<stop offset="0.5" stop-color="#60B2E4"  />
<stop offset="1" stop-color="#7EC2EB"  />
</linearGradient>
<linearGradient id="linear_fill_89K02A7GSH58Tx1X5ZeFM" x1="858.18701171875" y1="254.17330932617188" x2="855.191650390625" y2="508.3025207519531" gradientUnits="userSpaceOnUse">
<stop offset="0" stop-color="#4171B5"  />
<stop offset="1" stop-color="#7EC2EB"  />
</linearGradient>
</defs>
</svg>
